<?xml version="1.0" standalone="no"?><!DOCTYPE svg PUBLIC "-//W3C//DTD SVG 1.1//EN" "http://www.w3.org/Graphics/SVG/1.1/DTD/svg11.dtd"><svg t="1536559104604" class="icon" style="" viewBox="0 0 1024 1024" version="1.1" xmlns="http://www.w3.org/2000/svg" p-id="2867" xmlns:xlink="http://www.w3.org/1999/xlink" width="32" height="32"><defs><style type="text/css"></style></defs><path d="M128 384a384 384 0 0 1 768 0v341.333333a128 128 0 0 1-128 128H256a128 128 0 0 1-128-128V384z m384-298.666667a298.666667 298.666667 0 0 0-298.666667 298.666667v341.333333a42.666667 42.666667 0 0 0 42.666667 42.666667h512a42.666667 42.666667 0 0 0 42.666667-42.666667V384a298.666667 298.666667 0 0 0-298.666667-298.666667z" fill="#75C82B" p-id="2868"></path><path d="M464.64 176.853333a42.666667 42.666667 0 0 1-18.56 57.386667A192.597333 192.597333 0 0 0 348.586667 352.938667a42.666667 42.666667 0 0 1-82.090667-23.210667 277.930667 277.930667 0 0 1 140.8-171.477333 42.666667 42.666667 0 0 1 57.386667 18.602666zM384 469.333333a128 128 0 0 1 256 0v426.666667a128 128 0 1 1-256 0V469.333333z m128-42.666666a42.666667 42.666667 0 0 0-42.666667 42.666666v426.666667a42.666667 42.666667 0 1 0 85.333334 0V469.333333a42.666667 42.666667 0 0 0-42.666667-42.666666z" fill="#75C82B" p-id="2869"></path></svg>